<?xml version="1.0" encoding="utf-8"?>
<!-- Generator: Adobe Illustrator 19.0.0, SVG Export Plug-In . SVG Version: 6.00 Build 0)  -->
<svg version="1.1" id="layer" xmlns="http://www.w3.org/2000/svg" xmlns:xlink="http://www.w3.org/1999/xlink" x="0px" y="0px"
	 viewBox="-153 -46 652 652" style="enable-background:new -153 -46 652 652;" xml:space="preserve">
<style type="text/css">
	.st0{fill-rule:evenodd;clip-rule:evenodd;fill:#009647;}
	.st1{fill-rule:evenodd;clip-rule:evenodd;}
	.st2{fill-rule:evenodd;clip-rule:evenodd;fill:#FFFFFF;}
</style>
<polygon class="st0" points="3.1,26.1 -192.5,410.7 398.9,410.7 596.7,26.1 "/>
<path class="st1" d="M-190,478.7l7.1-13.8c-11.1-1.5-24-2-31.7,4.3c-13.1,10.6-12.1,21.2-9.5,27.6c1.6,3.9,5.7,8.5,1.6,13
	c-1.1,1.2-2.9,2-5.3,2h-25.8l-6.3,12.6l31.9,0c9.7,0,20.1-7.2,23.8-17.8c3.1-9-1-15-2.9-19.9C-212.1,474.4-196.7,476.2-190,478.7
	 M272.4,501.9h-5.3l7.4-11H295l-17.4,31.9c-15.5,3.9-51,9.7-41.9-17.6c4.2-12.6,12.9-25.7,24.7-32.2c14.8-8.1,32.8-11.2,44.7-5.2
	l-5.8,13.7h-0.5c-2-2-6.9-2.6-9.4-3.1c-8.9,0-14.8,0.8-22.1,6.3c-4.6,3.5-9.7,10.7-12.5,16.8c-3.6,8.1-3.6,13.6,14.6,10.5
	L272.4,501.9z M334.9,496.1h-11l13.7-14.2L334.9,496.1z M370.2,507.6h-22.8l-2.1,16.8h-15.2l2.6-17.3h-19.4l-16.3,17.3h-16.8
	l58.9-59.4h16.3l-4.7,31.5h25.2L370.2,507.6z M152,478.7l7.4-13.7h-46.8l-7.4,13.7h15.2l-26.8,45.7h17.3l25.7-45.7H152z M93.2,465.1
	l-21,35.2l0.5-35.2H53.3l-32,59.4h13.7l20.5-35.7v35.7h18.9l33.1-59.4H93.2z M-14,465.1l-34.7,59.4h17.3l34.2-59.4H-14z
	 M-37.1,465.1l-37.3,40.5l8.9-40.5h-15.8l-12.6,59.4h17.3l56.7-59.4H-37.1z M193.5,465.1h-28.9L132,524.5h14.7l26.3-46.8h5.3
	c12.2-0.4,9.7,7.6,3.4,11.9c-3.5,2.4-7.6,2.1-12.4,2.3h-0.5l-6.3,32.6h16.3l2.6-25.7c6.1-1.7,16.9-7.7,21.2-16.9
	c2.9-6.1,3.8-14.2-4.4-16.2l-2.1-0.5H194H193.5z M-98,465.1H-127l-32.6,59.4h14.7l26.3-46.8h5.3c12.2-0.4,9.7,7.6,3.4,11.9
	c-3.5,2.4-7.6,2.1-12.4,2.3h-0.5l-6.3,32.6h16.3l2.6-25.7c6.1-1.7,16.9-7.7,21.2-16.9c2.9-6.1,3.8-14.2-4.4-16.2l-2.1-0.5h-2.1H-98z
	 M233,500.3l6.8-12.1h-21l6.3-10h22.6l7.4-13.1h-38.9L182,524.5h40.5l7.4-13.1h-23.1l6.3-11H233z M-0.3,511.3l6.3-11h20l6.8-12.1
	h-21l5.8-10h23.1l7.3-13.1H9.1L-25,524.5h40.4l7.4-13.1H-0.3z M-182.1,511.3l6.3-11h20l6.8-12.1h-21l5.8-10h23.1l7.4-13.1h-38.9
	l-34.1,59.4h39.9l7.9-13.1H-182.1z"/>
<path class="st2" d="M487.9,81.4V73h0.9c4.4,0,6.8,1.4,6.8,4.2c0,2.7-2.5,4.3-6.8,4.3C488.5,81.5,488.2,81.4,487.9,81.4 M481.9,95.9
	h6.7V84.3h0.7l6,11.6h7.2L496,84.4c3.6-0.8,5.8-3.1,5.8-6.2c0-4.5-3.8-6.9-11.4-6.9h-8.5V95.9z M490.3,55.1
	c15.7,0,28.5,12.8,28.5,28.4c0,15.7-12.8,28.5-28.5,28.5c-15.6,0-28.5-12.8-28.5-28.5C461.9,67.9,474.7,55.1,490.3,55.1 M490.3,62.9
	c11.4,0,20.7,9.3,20.7,20.7c0,11.4-9.3,20.7-20.7,20.7c-11.4,0-20.7-9.3-20.7-20.7C469.7,72.2,478.9,62.9,490.3,62.9"/>
<path class="st2" d="M263.2,100c61.2-2.6,117.9,7.4,156.1,58.4H474c-39.6-90.5-134.1-103.9-205.5-102
	C147.8,59.8,1.6,112.1-54.9,236.5h444.2c-64.6,64.7-143.2,102.9-220.8,105C90.9,343.7,28.2,335.1,4,274.6l-62.4-0.2
	c46.1,131.5,247.4,129.7,360.9,81.3c76-32.4,130.1-86.2,166.7-160.3H28.5C88.5,126.4,183.4,103.3,263.2,100"/>
</svg>
