<svg xmlns="http://www.w3.org/2000/svg" viewBox="0 0 500 134.84"><title>illustration-1</title><path d="M237.71,104.69a8.23,8.23,0,0,0-.22-9.11,3.27,3.27,0,0,1-.51-2.45,6.67,6.67,0,0,0,0-2.44,6.8,6.8,0,0,0-6.55-5.48,6.89,6.89,0,0,0-1.63.17,2,2,0,0,1-1.76-.47,8.33,8.33,0,0,0-13.59,3.93,1.48,1.48,0,0,1-1.28,1.08,5.1,5.1,0,0,0-.68.13,4.22,4.22,0,0,0-2,6.91,2,2,0,0,1,.49,1.77,9.26,9.26,0,0,0-.14,3.67,9.53,9.53,0,0,0,.72,2.33Z" style="fill:#7fc5a3"/><path d="M177.1,104.69a8.23,8.23,0,0,0-.22-9.11,3.32,3.32,0,0,1-.51-2.45,6.67,6.67,0,0,0,0-2.44,6.79,6.79,0,0,0-6.54-5.48,7,7,0,0,0-1.64.17,2,2,0,0,1-1.76-.47,8.33,8.33,0,0,0-13.59,3.93,1.48,1.48,0,0,1-1.28,1.08,5,5,0,0,0-.67.13,4.21,4.21,0,0,0-2,6.92,2,2,0,0,1,.48,1.77,9.45,9.45,0,0,0-.13,3.67,8.63,8.63,0,0,0,.72,2.33Z" style="fill:#d8ebd2"/><path d="M209.11,104.69a11.08,11.08,0,0,0-.29-12.29,4.38,4.38,0,0,1-.7-3.2,9.11,9.11,0,0,0-7.36-10.59,8.24,8.24,0,0,0-1.48-.14,9.2,9.2,0,0,0-2.22.23,2.62,2.62,0,0,1-2.37-.65,11.2,11.2,0,0,0-18.33,5.32,2,2,0,0,1-1.72,1.45,5.54,5.54,0,0,0-.92.17,5.68,5.68,0,0,0-2.7,9.33,2.69,2.69,0,0,1,.65,2.38,12.21,12.21,0,0,0-.18,4.89,12,12,0,0,0,1,3.15Z" style="fill:#f4835f"/><path d="M324.49,106.6a5.92,5.92,0,0,0,.89-3.67,6.07,6.07,0,0,0-1.05-2.89,2.39,2.39,0,0,1-.38-1.76,4.54,4.54,0,0,0,0-1.8,4.88,4.88,0,0,0-4.75-4,5.56,5.56,0,0,0-1.22.13,1.39,1.39,0,0,1-1.23-.35,6,6,0,0,0-9.86,2.86,1.08,1.08,0,0,1-.93.78,3,3,0,0,0-.5.1,3.07,3.07,0,0,0-2.25,2.82,3,3,0,0,0,.8,2.2,1.43,1.43,0,0,1,.35,1.22,6.85,6.85,0,0,0-.1,2.63,6.72,6.72,0,0,0,.53,1.7Z" style="fill:#7fc5a3"/><path d="M306.12,104.69a8.1,8.1,0,0,0,1.22-5,8.33,8.33,0,0,0-1.41-3.91,3.13,3.13,0,0,1-.52-2.36A6.57,6.57,0,0,0,299,85.62a5.84,5.84,0,0,0-1.61.17,2,2,0,0,1-1.71-.48,8.14,8.14,0,0,0-13.32,3.89,1.43,1.43,0,0,1-1.22,1.06,3.76,3.76,0,0,0-.67.12,4.16,4.16,0,0,0-3.05,3.8,4.11,4.11,0,0,0,1.09,3,2,2,0,0,1,.47,1.74,9,9,0,0,0-.13,3.54,8.79,8.79,0,0,0,.7,2.29Z" style="fill:#f4835f"/><path d="M337.8,36.13a15.37,15.37,0,0,0,.14-2.35c-.22-8.64-8-15.59-17.31-15.48s-16.81,7.12-16.84,15.78a8.68,8.68,0,0,0,0,1,19,19,0,0,1-4.23,13.2,23.27,23.27,0,0,0-5.14,17.6c1.36,11.26,11,20.23,23.1,21.54,16,1.72,29.53-9.78,29.61-24.26a23.42,23.42,0,0,0-5.66-15.35A15,15,0,0,1,337.8,36.13Z" style="fill:#f4835f"/><path d="M328.84,62.42a.73.73,0,0,0-1,.06h0l-6.44,7.42V59.29L326.8,53a.6.6,0,0,0,0-.83.57.57,0,0,0-.81,0h0l-4.61,5.32V47.68a.76.76,0,1,0-1.51,0V70.53l-6.5-7.71a.76.76,0,0,0-1.07,0,.75.75,0,0,0-.09,1l7.59,9.12v30.78a.76.76,0,0,0,1.51,0h0V72.23l7.58-8.75a.74.74,0,0,0,0-1Z" style="fill:#56505c"/><path d="M327.27,89.31s.55-2.56,2.1-2.56c.41,0,.77-.53.73-1.22-.13-2.44-.26-7.33.82-9.1a3.65,3.65,0,0,1,3-1.9c.38,0,.7-.43.74-1,.17-2.76.77-8,3-8.81a2,2,0,0,1,1.44,0c2.27.76,2.89,6,3,8.81,0,.6.36,1.07.74,1a3.67,3.67,0,0,1,3,1.81c1.08,1.72,1,6.64.83,9.11,0,.68.31,1.22.72,1.22,1.55,0,2.1,2.59,2.1,2.59a10.45,10.45,0,0,1,.26,4.2c-1.71,13.19-21.13,13.18-22.79,0A10.56,10.56,0,0,1,327.27,89.31Z" style="fill:#f5ec48"/><path d="M341.74,89.2l-2.8,3.24v-7l3.36-3.88a.36.36,0,0,0,0-.51.39.39,0,0,0-.53,0l-2.83,3.25V77.38a.53.53,0,0,0-1.05,0v6.93l-3.17-3.67a.37.37,0,1,0-.56.48h0l3.73,4.3v7.93l-3-3.55a.39.39,0,0,0-.55,0,.39.39,0,0,0,0,.53l3.56,4.27v21.49a.52.52,0,0,0,.52.52.54.54,0,0,0,.53-.52V93.55l3.36-3.86a.38.38,0,0,0,0-.53.37.37,0,0,0-.52,0h-.05Z" style="fill:#56505c"/><polygon points="229.26 83.43 229.26 101.59 250.79 101.59 250.79 83.43 238.76 69.95 229.26 83.43" style="fill:#f8e5c1"/><rect x="250.39" y="83.43" width="31.31" height="18.16" style="fill:#fdf3de"/><rect x="253.69" y="88.44" width="5.01" height="8.76" rx="0.5" style="fill:#56505c"/><rect x="235.38" y="84.17" width="7.44" height="13.03" rx="0.5" style="fill:#56505c"/><path d="M270.58,101.42h-8.14V93.61a4.07,4.07,0,0,1,4.07-4.07h0a4.07,4.07,0,0,1,4.07,4.07h0Z" style="fill:#56505c"/><rect x="272.96" y="88.44" width="5.01" height="8.76" rx="0.5" style="fill:#56505c"/><polygon points="274.36 69.02 237.41 69.02 225.98 83.43 229.41 83.43 238.62 70.95 248.05 83.43 285.64 83.43 274.36 69.02" style="fill:#f4835f"/><path d="M278.22,70.86a3.89,3.89,0,0,1,3.44-2.65A1.23,1.23,0,0,0,282.89,67c-.22-2.54-.41-7.57,1.35-9.33a7.24,7.24,0,0,1,4.89-1.84,1.22,1.22,0,0,0,1.22-1.06c.27-2.82,1.23-8.24,5-9a5.57,5.57,0,0,1,2.37,0c3.74.78,4.73,6.2,5,9A1.23,1.23,0,0,0,304,55.82a7.2,7.2,0,0,1,4.88,1.84c1.78,1.76,1.59,6.79,1.37,9.33a1.23,1.23,0,0,0,1.23,1.22,3.9,3.9,0,0,1,3.41,2.65C319.35,81,299.48,91.18,297,92.39a1.31,1.31,0,0,1-.51.12h0a1.32,1.32,0,0,1-.52-.12C293.57,91.12,273.71,81,278.22,70.86Z" style="fill:#7fc5a3"/><path d="M303.26,67.36a.59.59,0,0,0-.83,0h0l-5,5.79V60.59a.59.59,0,0,0-.56-.59h0a.59.59,0,0,0-.59.59h0V78.2l-4.93-6a.6.6,0,0,0-.81-.18.58.58,0,0,0-.19.81l.1.12,5.79,7v23.83a.58.58,0,0,0,.58.59h0a.57.57,0,0,0,.63-.51.19.19,0,0,0,0-.08V75l5.88-6.77a.57.57,0,0,0-.08-.81Z" style="fill:#56505c"/><path d="M291.36,103.14a4,4,0,0,0,.13-4.42,1.54,1.54,0,0,1-.19-1.22,3.28,3.28,0,0,0-3-4,3.48,3.48,0,0,0-.79,0,1,1,0,0,1-.84-.28,4.06,4.06,0,0,0-5.73,0,4.16,4.16,0,0,0-1,1.59.73.73,0,0,1-.65.49H279a2,2,0,0,0-1.59,2.42,2,2,0,0,0,.44.89,1,1,0,0,1,.18.88,4.77,4.77,0,0,0-.16,1.76,4.85,4.85,0,0,0,.29,1.15Z" style="fill:#7fc5a3"/><path d="M169.14,51.52s1.12-5.47,4.36-5.41c.89,0,1.6-1.13,1.53-2.55-.28-5.17-.52-15.4,1.73-19a7.66,7.66,0,0,1,6.24-3.8c.78.08,1.45-.89,1.52-2.15.33-5.74,1.6-16.8,6.35-18.33a4.3,4.3,0,0,1,3,0c4.75,1.58,6,12.64,6.35,18.33.07,1.22.74,2.23,1.52,2.15,1.73-.16,4.6,1.16,6.23,3.77,2.24,3.6,2,13.83,1.73,19-.08,1.42.64,2.57,1.53,2.56,3.23,0,4.36,5.4,4.36,5.4a21.59,21.59,0,0,1,.54,8.76c-3.57,27.53-44.1,27.49-47.54,0A21.93,21.93,0,0,1,169.14,51.52Z" style="fill:#f5ec48"/><path d="M199.34,43.33l-5.85,6.76V40.48l7-8.08a.77.77,0,0,0-.08-1.09.76.76,0,0,0-1.08.08h0l-5.85,6.74V26.62a1.1,1.1,0,0,0-2.18,0V59.86l-6.19-7.33a.82.82,0,0,0-1.13-.1.81.81,0,0,0-.1,1.13l7.42,8.9v45a1.1,1.1,0,0,0,2.18,0v-55l7-8.08a.78.78,0,0,0,0-1.09.77.77,0,0,0-1.09,0,.28.28,0,0,0-.09.1Z" style="fill:#56505c"/><path d="M130.87,64.75s1.31-3.92,5-3.88a1.71,1.71,0,0,0,1.77-1.63,1.48,1.48,0,0,0,0-.21c-.31-3.66-.58-11,2-13.64a10.62,10.62,0,0,1,7.17-2.64,1.67,1.67,0,0,0,1.76-1.54c.39-4.13,1.85-12.07,7.34-13.2a5.06,5.06,0,0,1,1.73-.19,5.38,5.38,0,0,1,1.74.19c5.46,1.13,6.91,9.07,7.33,13.2a1.68,1.68,0,0,0,1.72,1.54,10.69,10.69,0,0,1,7.19,2.7c2.58,2.6,2.31,9.94,2,13.64a1.7,1.7,0,0,0,1.56,1.83h.2c3.74,0,5,3.88,5,3.88,6.61,14.87-22.45,29.74-26,31.5a1.71,1.71,0,0,1-.74.17h0a1.83,1.83,0,0,1-.76-.17C153.32,94.49,124.26,79.62,130.87,64.75Z" style="fill:#4e958c"/><path d="M167.5,62.09a.84.84,0,0,0-1.19,0l0,0-7.34,8.41V52.18a.87.87,0,0,0-1.72,0V78l-7.33-8.72a.86.86,0,0,0-1.32,1.1l8.55,10.31v34.88a.87.87,0,1,0,1.72.21.74.74,0,0,0,0-.21V73.2l8.56-9.9a.85.85,0,0,0,.12-1.19Z" style="fill:#56505c"/><path d="M500,119.09h0v-3.56a2134.28,2134.28,0,0,0-500,0l.08,3.56,1-.12A2125.1,2125.1,0,0,1,500,119.09Z" style="fill:#e7f3e5"/><path d="M500,123.89h0V118.4a2133.2,2133.2,0,0,0-500,0v5.49l1-.12A2125.78,2125.78,0,0,1,500,123.89Z" style="fill:#d8ebd2"/><path d="M500,123.09a2132.27,2132.27,0,0,0-499.89,0v11.75H500Z" style="fill:#7fc5a3"/></svg>