<svg xmlns="http://www.w3.org/2000/svg" viewBox="0 0 465 445.74"><title>illustration-2</title><path d="M424.77,88.94a170.83,170.83,0,0,0-25.48-29.83C347.93,11.45,264.66-14.65,196.8,9.28,149.29,26,109.19,65.58,93.66,113.74c-1.77,5.49-2.72,11.27-4.78,16.66-10,26.36-39.45,44.17-57.26,65.23C11,220-.34,249.06.28,281.14c1.75,90.2,80.32,167,245,161.79s229.3-72.75,218.24-161.21c-5.41-43.24-5.36-86.85-13.05-129.83A165.48,165.48,0,0,0,424.77,88.94Z" transform="translate(0 -0.26)" style="fill:#5ae4a7"/><path d="M424.77,88.94a170.83,170.83,0,0,0-25.48-29.83C347.93,11.45,264.66-14.65,196.8,9.28,149.29,26,109.19,65.58,93.66,113.74c-1.77,5.49-2.72,11.27-4.78,16.66-10,26.36-39.45,44.17-57.26,65.23C11,220-.34,249.06.28,281.14c1.75,90.2,80.32,167,245,161.79s229.3-72.75,218.24-161.21c-5.41-43.24-5.36-86.85-13.05-129.83A165.48,165.48,0,0,0,424.77,88.94Z" transform="translate(0 -0.26)" style="fill:#d3f6d4"/><path d="M356.59,377.86c1.91.61,6.37,0,6.37,0s-1.26-2.82-1.37-3c-1.19-2-4.65-5-7.14-4.41a3,3,0,0,0-2,4C353,376.24,355,377.35,356.59,377.86Z" transform="translate(0 -0.26)" style="fill:#5ae4a7"/><path d="M359.49,390.65c1.92.08,5.79-1.5,6.1-1.63a52.25,52.25,0,0,0,3.12,6.45c.68,1.21,1.4,2.41,2.14,3.6l-.85-1c-1.67-1.56-5.81-3.6-8.05-2.36a3,3,0,0,0-.89,4.42c1,1.48,3.19,2.05,4.89,2.11s5.06-1.2,5.93-1.55l.87,1.37c1.39,2.18,2.79,4.34,4.1,6.51.47.77.89,1.54,1.32,2.3l-.74-.85c-1.67-1.57-5.81-3.61-8.05-2.37a3,3,0,0,0-.89,4.42c1,1.49,3.19,2.05,4.89,2.12s4.74-1.08,5.78-1.49c.41.8.83,1.6,1.2,2.39.24.55.51,1.06.72,1.62s.43,1.11.65,1.65c.37,1.06.76,2.15,1.1,3.19.25.73.46,1.42.68,2.12-.45-.76-1.36-2.24-1.45-2.36-1.41-1.8-5.2-4.44-7.6-3.56a3,3,0,0,0-1.55,4.24c.8,1.62,2.84,2.51,4.52,2.83,1.84.36,5.75-.55,6.24-.67.36,1.16.7,2.29,1,3.36.68,2.36,1.23,4.49,1.66,6.29l1.67-.18c-.49-1.86-1.11-4.07-1.87-6.54-.37-1.18-.78-2.43-1.21-3.71a33.1,33.1,0,0,0,3.31-2,22.42,22.42,0,0,0,5.42,2.74c-.34,1.16-.68,2.29-1,3.35-.7,2.23-1.38,4.2-2,5.89l1.8-.19c.51-1.55,1.07-3.31,1.64-5.26.34-1.18.69-2.45,1-3.75.49,0,4.49.43,6.27-.17,1.62-.55,3.53-1.7,4.1-3.41a3,3,0,0,0-2.1-4c-2.5-.56-5.9,2.57-7.06,4.54-.07.11-.67,1.46-1,2.31.14-.53.28-1.05.41-1.6.28-1.09.52-2.19.79-3.37.1-.57.21-1.15.32-1.74s.18-1.2.27-1.81c.19-1.41.3-2.85.39-4.3,1,.24,4.36,1,6.05.74s3.74-1.14,4.56-2.75a3,3,0,0,0-1.47-4.27c-2.38-.93-6.21,1.65-7.66,3.42-.09.11-1,1.5-1.45,2.27,0-.87.09-1.74.11-2.63.05-2.56,0-5.15,0-7.73,0-.79,0-1.58,0-2.37.34.09,4.37,1.12,6.26.79,1.68-.29,3.74-1.14,4.57-2.75a3,3,0,0,0-1.47-4.26c-2.39-.93-6.22,1.64-7.66,3.42-.11.13-1.39,2.13-1.7,2.66,0-1.74,0-3.48.11-5.18a54.23,54.23,0,0,1,.76-6.88c.16,0,4.36,1.14,6.3.8,1.68-.3,3.74-1.14,4.56-2.75a3,3,0,0,0-1.47-4.26c-2.38-.93-6.21,1.64-7.66,3.41-.11.14-1.49,2.3-1.71,2.7,0-.13,0-.27.06-.4a38.69,38.69,0,0,1,2-6.64c.46-1.19,1-2.31,1.48-3.38.76.28,4.25,1.55,6,1.43s3.85-.72,4.84-2.23a3,3,0,0,0-1-4.4c-2.27-1.18-6.36,1-8,2.56-.09.09-.89,1.07-1.47,1.8.24-.48.48-1,.72-1.44.9-1.72,1.83-3.23,2.66-4.57.48-.75.93-1.43,1.35-2.05.9-.11,4.49-.6,6-1.5s3.08-2.42,3.27-4.21a3,3,0,0,0-2.91-3.45c-2.56,0-5.2,3.78-5.91,6-.06.19-.68,3.24-.63,3.23h.05c-.42.59-.87,1.23-1.34,1.94-.86,1.32-1.83,2.82-2.76,4.53a51.84,51.84,0,0,0-2.77,5.63,39.9,39.9,0,0,0-2.17,6.68s0,.06,0,.09c-.07-.75-.32-2.83-.36-3-.52-2.22-2.85-6.21-5.41-6.41a3,3,0,0,0-3.17,3.19c0,1.81,1.52,3.47,2.91,4.47,1.56,1.12,5.66,1.94,6,2a53.81,53.81,0,0,0-.95,7.09c-.1,1.39-.16,2.79-.2,4.2-.08-.65-.15-1.22-.17-1.3-.53-2.23-2.85-6.22-5.41-6.42a3,3,0,0,0-3.18,3.2c0,1.81,1.53,3.47,2.92,4.46s4.88,1.79,5.8,2l0,1.62c0,2.58-.07,5.17-.17,7.7,0,.89-.1,1.77-.17,2.64-.07-.57-.13-1.05-.15-1.12-.53-2.23-2.85-6.21-5.41-6.41a3,3,0,0,0-3.18,3.19c0,1.81,1.53,3.47,2.92,4.47s4.54,1.7,5.64,1.94c-.1.89-.19,1.79-.32,2.66-.1.59-.16,1.16-.3,1.75l-.36,1.73c-.28,1.09-.55,2.22-.84,3.27-.2.74-.4,1.44-.61,2.14.05-.88.1-2.62.09-2.77a11.75,11.75,0,0,0-2.16-5.53,5,5,0,0,0-.11-.66,3,3,0,0,0-4-2.17c-2.39.91-3.5,5.4-3.37,7.68,0,.13.24,1.59.41,2.5-.18-.52-.35-1-.54-1.57-.37-1.06-.78-2.11-1.2-3.24-.23-.53-.46-1.08-.69-1.63s-.52-1.1-.77-1.65c-.63-1.28-1.33-2.55-2.06-3.81.93-.33,4.21-1.54,5.46-2.72s2.49-3,2.29-4.81a3,3,0,0,0-3.58-2.75c-2.5.54-4.28,4.81-4.5,7.08,0,.14,0,1.79,0,2.7-.44-.75-.88-1.51-1.36-2.26-1.37-2.16-2.82-4.3-4.26-6.45-.44-.65-.88-1.31-1.31-2,.33-.12,4.26-1.47,5.65-2.79s2.5-3,2.29-4.82a3,3,0,0,0-3.57-2.74c-2.51.54-4.28,4.8-4.51,7.08,0,.17,0,2.54.06,3.15-1-1.45-1.9-2.91-2.77-4.38a54.38,54.38,0,0,1-3.16-6.16c.16-.05,4.27-1.45,5.69-2.8,1.24-1.18,2.49-3,2.29-4.81a3,3,0,0,0-3.57-2.75c-2.51.54-4.28,4.8-4.51,7.08,0,.18,0,2.73.06,3.2-.05-.13-.12-.25-.17-.37a39.19,39.19,0,0,1-2-6.65c-.27-1.24-.46-2.45-.62-3.64.79-.18,4.4-1.05,5.82-2.13s2.8-2.72,2.8-4.53a3,3,0,0,0-3.25-3.12c-2.55.26-4.78,4.31-5.26,6.54,0,.13-.15,1.39-.23,2.31-.06-.53-.14-1.08-.19-1.59-.2-1.93-.26-3.71-.3-5.28,0-.89,0-1.7,0-2.46.69-.58,3.41-3,4.16-4.55s1.24-3.71.4-5.32A3,3,0,0,0,363,356.8c-2.14,1.41-2.26,6-1.65,8.23.05.19,1.22,3.07,1.25,3l.05,0c0,.73-.05,1.51-.05,2.36,0,1.58,0,3.36.19,5.3a53.47,53.47,0,0,0,.8,6.23,40.5,40.5,0,0,0,1.88,6.77l0,.07c-.47-.58-1.83-2.18-2-2.29-1.67-1.57-5.81-3.61-8-2.37a3,3,0,0,0-.88,4.42C355.63,390,357.78,390.58,359.49,390.65Z" transform="translate(0 -0.26)" style="fill:#5ae4a7"/><path d="M401.9,374.11s.5-3.05.51-3.25c.08-2.28-1.12-6.75-3.53-7.61a3,3,0,0,0-3.91,2.24c-.43,1.76.56,3.75,1.63,5.08C397.86,372.13,401.9,374.11,401.9,374.11Z" transform="translate(0 -0.26)" style="fill:#5ae4a7"/><path d="M407.08,172.51s-9.63-23.23-32-25.78S350.15,163.16,345.9,168s-5.38-5.95-16.15-4.25-11,10.76-14.44,15-3.4-2.55-9.63-1.13-5.1,4.53-6.8,7.37-3.69-3.12-8.78-1.14a7,7,0,0,0-4.54,7.08h138.8s3.12-7.08-2-13S409.63,177.89,407.08,172.51Z" transform="translate(0 -0.26)" style="fill:#fff;stroke:#1a2e35;stroke-miterlimit:10"/><path d="M53,253.69s-4.11-9.93-13.69-11-10.66,7-12.48,9.08-2.3-2.54-6.9-1.81-4.73,4.6-6.18,6.42-1.46-1.09-4.12-.49S7.4,257.81,6.67,259s-1.58-1.33-3.76-.48a3,3,0,0,0-1.94,3H60.35A5.57,5.57,0,0,0,59.5,256C57.32,253.45,54.05,256,53,253.69Z" transform="translate(0 -0.26)" style="fill:#fff;stroke:#1a2e35;stroke-miterlimit:10"/><path d="M294.27,49.77S287,32.2,270.05,30.27,251.19,42.7,248,46.34s-4.07-4.5-12.22-3.21-8.35,8.14-10.93,11.35-2.57-1.92-7.28-.85-3.86,3.43-5.14,5.57-2.79-2.36-6.65-.86a5.28,5.28,0,0,0-3.43,5.36h105s2.36-5.36-1.5-9.86S296.2,53.84,294.27,49.77Z" transform="translate(0 -0.26)" style="fill:#fff;stroke:#1a2e35;stroke-miterlimit:10"/><path d="M254.13,324.72c0,22.34-19.11,40.45-42.69,40.45s-42.68-18.11-42.68-40.45,19.11-71.19,42.68-71.19S254.13,302.39,254.13,324.72Z" transform="translate(0 -0.26)" style="fill:#5ae4a7"/><path d="M254.13,324.72c0,22.34-19.11,40.45-42.69,40.45s-42.68-18.11-42.68-40.45,19.11-71.19,42.68-71.19S254.13,302.39,254.13,324.72Z" transform="translate(0 -0.26)" style="fill:#f1815f"/><polygon points="207.81 445.49 208.49 358.56 195.57 339.07 208.48 353.45 208.48 338.49 201.44 315.6 209.07 333.79 210.39 304.05 211.12 336.43 212.03 343.43 222.75 336.18 212.29 345.82 212 353.45 223.02 345.61 212.59 356.24 213.17 445.46 207.81 445.49" style="fill:#54505c"/><path d="M114.65,341.91c0,19.17-16.4,34.7-36.62,34.7s-36.62-15.53-36.62-34.7S57.81,280.83,78,280.83,114.65,322.75,114.65,341.91Z" transform="translate(0 -0.26)" style="fill:#5ae4a7"/><path d="M114.65,341.91c0,19.17-16.4,34.7-36.62,34.7s-36.62-15.53-36.62-34.7S57.81,280.83,78,280.83,114.65,322.75,114.65,341.91Z" transform="translate(0 -0.26)" style="fill:#f1815f"/><polygon points="74.92 445.49 75.5 370.91 64.41 354.19 75.49 366.53 75.49 353.69 69.44 334.05 75.99 349.66 77.13 324.14 77.75 351.93 78.53 357.93 87.73 351.71 78.76 359.98 78.51 366.53 87.96 359.8 79.01 368.91 79.51 445.47 74.92 445.49" style="fill:#54505c"/><path d="M5.48,442.52s81.05-21.84,157.73-26.14,127.33,0,185.72,9.15S465,446,465,446H0Z" transform="translate(0 -0.26)" style="fill:#55505c"/><path d="M133.9,405.65s-6.25,1.72-11.76,14.82C122.14,420.47,132.12,418.34,133.9,405.65Z" transform="translate(0 -0.26)" style="fill:#5ae4a7"/><path d="M90.92,411.68s-6.26,1.72-11.76,14.81C79.16,426.49,89.14,424.37,90.92,411.68Z" transform="translate(0 -0.26)" style="fill:#5ae4a7"/><path d="M218.46,402s-4,2.36-5.24,12.38C213.22,414.36,219.66,411,218.46,402Z" transform="translate(0 -0.26)" style="fill:#5ae4a7"/><path d="M192.69,403.44s1.93,6.19,15.2,11.26C207.89,414.7,205.43,404.79,192.69,403.44Z" transform="translate(0 -0.26)" style="fill:#5ae4a7"/><path d="M94.39,410.39s1.93,6.19,15.2,11.26C109.59,421.65,107.13,411.75,94.39,410.39Z" transform="translate(0 -0.26)" style="fill:#5ae4a7"/><path d="M63.91,419.09s1.4,4.51,11.06,8.19C75,427.28,73.18,420.08,63.91,419.09Z" transform="translate(0 -0.26)" style="fill:#5ae4a7"/><path d="M216.82,165.92c0,51.65-44.19,93.52-98.7,93.52s-98.69-41.87-98.69-93.52S63.62,1.3,118.12,1.3,216.82,114.28,216.82,165.92Z" transform="translate(0 -0.26)" style="fill:#5ae4a7"/><path d="M216.82,165.92c0,51.65-44.19,93.52-98.7,93.52s-98.69-41.87-98.69-93.52S63.62,1.3,118.12,1.3,216.82,114.28,216.82,165.92Z" transform="translate(0 -0.26)" style="fill:#f8f13e"/><polygon points="109.73 445.49 111.29 244.5 81.41 199.44 111.27 232.69 111.27 198.09 94.98 145.16 112.62 187.23 115.69 118.45 117.37 193.34 119.47 209.51 144.28 192.75 120.09 215.05 119.41 232.69 144.88 214.55 120.76 239.12 122.12 445.44 109.73 445.49" style="fill:#54505c"/><polyline points="444.12 438.08 366.63 115.32 289.14 438.08" style="fill:none;stroke:#1a2e35;stroke-linecap:round;stroke-linejoin:round;stroke-width:9px"/><line x1="319.22" y1="319.44" x2="413.07" y2="319.44" style="fill:none;stroke:#1a2e35;stroke-linecap:round;stroke-linejoin:round;stroke-width:9px"/><line x1="110.13" y1="114.35" x2="371.39" y2="114.35" style="fill:none;stroke:#1a2e35;stroke-linecap:round;stroke-linejoin:round;stroke-width:9px"/><path d="M280.78,120.61H254.46a6,6,0,0,1,0-12h26.32a6,6,0,0,1,0,12Z" transform="translate(0 -0.26)" style="fill:#fff;stroke:#1a2e35;stroke-miterlimit:10"/><path d="M224.53,120.61H202.34a6,6,0,0,1,0-12h22.19a6,6,0,0,1,0,12Z" transform="translate(0 -0.26)" style="fill:#fff;stroke:#1a2e35;stroke-miterlimit:10"/><line x1="240.43" y1="114.35" x2="251.15" y2="114.35" style="fill:none;stroke:#1a2e35;stroke-linecap:round;stroke-linejoin:round;stroke-width:9px"/><line x1="188.8" y1="114.35" x2="199.52" y2="114.35" style="fill:none;stroke:#1a2e35;stroke-linecap:round;stroke-linejoin:round;stroke-width:9px"/><polyline points="195.44 438.08 117.95 115.32 40.47 438.08" style="fill:none;stroke:#1a2e35;stroke-linecap:round;stroke-linejoin:round;stroke-width:9px"/><line x1="70.54" y1="319.44" x2="164.38" y2="319.44" style="fill:none;stroke:#1a2e35;stroke-linecap:round;stroke-linejoin:round;stroke-width:9px"/><path d="M276.47,202.85s.44-2.86-5.06-7.69S258,191,256.68,193.4s2.42.44,3.74,1.1,4.84,0-2.42,2.19-14.51,9-17.15,17.81-1.31,14.07-3.07,16.93-8.58,4.62-11,5.06-2.63,6.81,1.76,8.13,8.58-1.1,8.58-1.1-4.18,4.84-.22,6.16,11-1.32,11-1.32-4.18,1.32,1.32,2a33.19,33.19,0,0,0,15-1.32c4.4-1.54,9.23-2.42,11.65-.88A9.22,9.22,0,0,0,287,247.7c4.4-3.52-.88-10.33,0-12.75s7-6.38,6.82-14.95-4.84-12.09-9.24-13.19A25.49,25.49,0,0,1,276.47,202.85Z" transform="translate(0 -0.26)" style="fill:#54505c;stroke:#1a2e35;stroke-miterlimit:10"/><path d="M274.27,201.75s-10.11-2.2-13.19,2-1.32,4.18-.22,7.47,1.76,6.16-.88,12.32-3.52,7.25-3.52,7.25-.22,3.52,2.42,3.74a9,9,0,0,0,4.4-.66s1.76,8.57.22,12.31-7,4.18-11.65,7.47-6.82,5.28-6.6,11.88-.66,30.33.22,35.83,7.48,6.38,10.11,4.18,7.26-16,7.26-16l7.69,13.63,1.76,22.42,51.45-14.95-13.41-17.8-2-12.1S333,290.13,338,287.49s-3.74-16.05-7.92-18.69-8.79-2.85-14.73-7-8.13-8.14-14.95-10.77-14.29-2.2-15.61-2.64-5.27-12.09-5.27-12.09,10.33-1.1,11.21-4.18-2-14.51-5.72-18S280.43,203.51,274.27,201.75Z" transform="translate(0 -0.26)" style="fill:#fff;stroke:#1a2e35;stroke-miterlimit:10"/><path d="M275.72,208.58a5,5,0,0,0,3.7,4.06c3.33.87,5.55-.86,5.79,1a4,4,0,0,1-1.48,3.57" transform="translate(0 -0.26)" style="fill:#fff;stroke:#1a2e35;stroke-miterlimit:10"/><path d="M285.58,220.66a16.66,16.66,0,0,1-5.67,1.72,6.23,6.23,0,0,1-4.07-1.11" transform="translate(0 -0.26)" style="fill:none;stroke:#1a2e35;stroke-miterlimit:10"/><path d="M267.59,216.34s.49-2.83,4.56-3.08" transform="translate(0 -0.26)" style="fill:none;stroke:#1a2e35;stroke-miterlimit:10"/><path d="M265.37,212.15s.24-2.83,4.8-3.2" transform="translate(0 -0.26)" style="fill:none;stroke:#1a2e35;stroke-miterlimit:10"/><path d="M278.43,211.41s1.36-1.6,3-.74" transform="translate(0 -0.26)" style="fill:none;stroke:#1a2e35;stroke-miterlimit:10"/><path d="M276,207.71a2.52,2.52,0,0,1,3.82-1" transform="translate(0 -0.26)" style="fill:none;stroke:#1a2e35;stroke-miterlimit:10"/><polygon points="279.55 236.01 272.75 236.03 281.17 240.34 279.55 236.01" style="fill:#1a2e35;stroke:#1a2e35;stroke-miterlimit:10"/><path d="M272.29,325.52l51.45-14.95-13.41-17.8-2-12.1s2.27.88,5.57,2a16.07,16.07,0,0,1-.35-5.36c.5-5.61,4.73-10.82,6.55-12.83a30.21,30.21,0,0,1-4.74-2.73c-5.93-4.18-8.13-8.14-14.95-10.77s-14.29-2.2-15.61-2.64c0,0,6.6,13.15,2,15.47s-17.94-10.34-20.68-12.66a7,7,0,0,0-5.27-1.9l-.21-.13c-2.42,1.41-5.78,2.35-8.77,4.49-4.62,3.3-6.82,5.28-6.6,11.88.12,3.44-.07,11.55-.15,19.3a14,14,0,0,1,5.6-3.89c4.64-1.69,10.34.42,10.34.42l1.8,8.13,7.69,13.63Z" transform="translate(0 -0.26)" style="fill:#5ae4a7;stroke:#1a2e35;stroke-miterlimit:10"/><path d="M302,264s1.9,1.48,4,6.12a33,33,0,0,1,2.37,10.51" transform="translate(0 -0.26)" style="fill:none;stroke:#1a2e35;stroke-miterlimit:10"/><line x1="261.04" y1="281.09" x2="261.25" y2="268.21" style="fill:none;stroke:#1a2e35;stroke-miterlimit:10"/><polygon points="273.26 348.77 275.75 357.61 358.13 333.01 355.64 324.72 273.26 348.77" style="fill:#fff;stroke:#1a2e35;stroke-miterlimit:10"/><polygon points="312.65 346.59 358.13 333.01 355.64 324.72 309.67 338.14 312.65 346.59" style="fill:#fff;stroke:#1a2e35;stroke-miterlimit:10"/><polygon points="268.71 120.4 265.5 120.4 344.87 327.4 347.68 326.32 268.71 120.4" style="fill:#fff;stroke:#1a2e35;stroke-miterlimit:10"/><path d="M316.05,260.57s-2.78-.25-3.16,1.52,1.39,7,2.91,6.7,2.78-.76,2.53-1.9S316.05,260.57,316.05,260.57Z" transform="translate(0 -0.26)" style="fill:#fff;stroke:#1a2e35;stroke-miterlimit:10"/><path d="M331.22,272l-2,.63c-2,.63-3.54-1.89-3.92-2.27s-.63-.26-1.52-.13-.5,1-1.51,1-1.52-.5-2.28-1.9-4.55-7.83-5.18-9.6,5.31-6.07,5.31-6.07-.38-1.39,1.89,1.14,6.7,6.19,8,8.47,4.63,10.27,4.63,10.27" transform="translate(0 -0.26)" style="fill:#fff;stroke:#1a2e35;stroke-miterlimit:10"/><path d="M320,269.29s-.25-1.13.63-1.51,4.93-2.53,4.93-2.53" transform="translate(0 -0.26)" style="fill:none;stroke:#1a2e35;stroke-miterlimit:10"/><path d="M318.08,265.76s.12-1,.75-1.27,5.31-2.78,5.31-2.78" transform="translate(0 -0.26)" style="fill:none;stroke:#1a2e35;stroke-miterlimit:10"/><path d="M317.16,262.48a2.35,2.35,0,0,1,1-1.91c1-.5,4.43-2.65,4.43-2.65" transform="translate(0 -0.26)" style="fill:none;stroke:#1a2e35;stroke-miterlimit:10"/><path d="M341.59,309.38s12.71-.56,21.75,0,41.28-2.19,47.91-3.25c9.8-1.58,22.53-16.84,22.6-20.34.07-3.8,7.62-2.54,8.19,5.65s-4,16.38-5.93,20.9-2.54,7.91-6.22,8.19-9-3.11-12.42-2.54-38.88,6.36-49.89,10.6-22.6,0-22.6,0l-7.34-.28S335.1,312.21,341.59,309.38Z" transform="translate(0 -0.26)" style="fill:#1a2e35;stroke:#1a2e35;stroke-miterlimit:10"/><path d="M436.11,312.34c2-4.52,6.49-12.71,5.93-20.9s-8.12-9.45-8.19-5.65c-.07,3.5-12.8,18.76-22.6,20.34-2.52.4-7.68.91-13.59,1.35-1.38,3.88-2.16,9.44,1.9,13.85,8.62-1.76,16.24-3.06,17.91-3.34,3.39-.57,8.75,2.82,12.42,2.54S434.13,316.86,436.11,312.34Z" transform="translate(0 -0.26)" style="fill:#fff;stroke:#1a2e35;stroke-miterlimit:10"/><path d="M436.11,312.34c2-4.52,6.49-12.71,5.93-20.9s-8.12-9.45-8.19-5.65c-.05,2.43-6.23,10.57-13.29,15.82a3.74,3.74,0,0,0,2,1.13,21.39,21.39,0,0,0,2.83-.29s2.25,0-1.42,6.22c-2.33,3.95-4.43,6.87-5.29,9.27,3.36.2,8,2.84,11.22,2.59C433.57,320.25,434.13,316.86,436.11,312.34Z" transform="translate(0 -0.26)" style="fill:#fff;stroke:#1a2e35;stroke-miterlimit:10"/><path d="M442,291.44c-.3-4.37-2.6-6.75-4.68-7.46a8.31,8.31,0,0,1,.16,3.79c-.56,5.08-3.39,9.32-3.39,14.4s-.85,6.78-3.67,11c-1.89,2.82-3.51,5.15-3.63,7a10,10,0,0,0,3.06.37c3.68-.28,4.24-3.67,6.22-8.19S442.6,299.63,442,291.44Z" transform="translate(0 -0.26)" style="fill:#fff;stroke:#1a2e35;stroke-miterlimit:10"/><path d="M275.22,321.25s-4.8,2.82-2.54,13.55,17.74,9.49,22.83,7.51,23.75-7.06,23.75-7.06-2,33.17-3.06,40.86A48,48,0,0,1,312.53,388a42.49,42.49,0,0,1-6.5,4.51c-2.82,1.42-3.95,2.55-2.26,8.48s4.79,14.8,9,20.33c2.82,3.67,9,5.65,9.88,2.54s-.84-10.73,0-18.07,2.26-18.36,4.52-24.57,18.05-47,19.47-58-1.13-17.22-8.76-17.51-26.27,2.54-40.39,6.78S279.46,317.58,275.22,321.25Z" transform="translate(0 -0.26)" style="fill:#1a2e35;stroke:#1a2e35;stroke-miterlimit:10"/><path d="M315.35,379.5" transform="translate(0 -0.26)" style="fill:#fff;stroke:#1a2e35;stroke-miterlimit:10"/><path d="M326.23,384.4c-5.78.71-9.35-.77-11.44-2.33a52,52,0,0,1-2.26,5.91,42.49,42.49,0,0,1-6.5,4.51c-2.82,1.42-3.95,2.55-2.26,8.48s4.79,14.8,9,20.33c2.82,3.67,9,5.65,9.88,2.54s-.84-10.73,0-18.07C323.41,399.56,324.53,390.73,326.23,384.4Z" transform="translate(0 -0.26)" style="fill:#fff;stroke:#1a2e35;stroke-miterlimit:10"/><path d="M322.69,423.84c.85-3.1-.84-10.73,0-18.07.22-1.86.47-4,.76-6.16-.52-.73-1.72-1.62-4.43-.9-4.23,1.13-6.21,1.69-6.21,1.69s-1.71-8.13-2.34-10.79a31.82,31.82,0,0,1-4.44,2.88c-2.82,1.42-3.95,2.55-2.26,8.48s4.79,14.8,9,20.33C315.63,425,321.85,427,322.69,423.84Z" transform="translate(0 -0.26)" style="fill:#fff;stroke:#1a2e35;stroke-miterlimit:10"/><path d="M319.85,333.67s-.57-13.84,7.9-19.2" transform="translate(0 -0.26)" style="fill:none;stroke:#8c8c8c;stroke-miterlimit:10"/><polygon points="218.01 120.4 214.79 120.4 299.72 340.92 302.64 339.9 218.01 120.4" style="fill:#fff;stroke:#1a2e35;stroke-miterlimit:10"/><path d="M273.33,259.06s.17-.86.87-.7,3.67.81,4.1,2,.15,1.75-.83,2-4-1.08-4.33-1.23S273.33,259.06,273.33,259.06Z" transform="translate(0 -0.26)" style="fill:#fff;stroke:#1a2e35;stroke-miterlimit:10"/><path d="M271.16,255.39s-6.11,2.74-5.48,4.64,2.32,12,2.32,12-14.77,17.09-17.51,19.83a16,16,0,0,0-5,9.45c-.89,4.48,1.64,11.44,8,9.54s9.5-6.12,12-15a159.6,159.6,0,0,1,7-19c.42-.84,2.32-.84,3.16-2.53a24.79,24.79,0,0,0,1.48-4.22l1.28-.74a1.55,1.55,0,0,0,.59-2l-3.56-6.94s.85-2.11.21-2.74A30.9,30.9,0,0,0,271.16,255.39Z" transform="translate(0 -0.26)" style="fill:#fff;stroke:#1a2e35;stroke-miterlimit:10"/><path d="M277.85,266.05s-3.35.66-4.17,1.31" transform="translate(0 -0.26)" style="fill:none;stroke:#1a2e35;stroke-miterlimit:10"/><path d="M276.46,263.11s-3.76.33-4.57,1" transform="translate(0 -0.26)" style="fill:none;stroke:#1a2e35;stroke-miterlimit:10"/><path d="M275.38,260.45s-4.06-.85-5-.19" transform="translate(0 -0.26)" style="fill:none;stroke:#1a2e35;stroke-miterlimit:10"/></svg>