<svg xmlns="http://www.w3.org/2000/svg" viewBox="0 0 500 89.34"><title>illustration-0</title><path d="M238.71,57.1a4.51,4.51,0,0,0-.12-5,1.69,1.69,0,0,1-.29-1.33,3.31,3.31,0,0,0,0-1.33,3.69,3.69,0,0,0-3.57-3,3.55,3.55,0,0,0-.86.1,1.1,1.1,0,0,1-1-.27,4.53,4.53,0,0,0-6.4.33h0a4.48,4.48,0,0,0-1,1.81.81.81,0,0,1-.7.59,2.2,2.2,0,0,0-.37.07,2.31,2.31,0,0,0-1.63,2.82,2.46,2.46,0,0,0,.52,1,1,1,0,0,1,.27,1,5,5,0,0,0-.07,2,4.85,4.85,0,0,0,.39,1.28Z" style="fill:#7fc5a3"/><path d="M205.65,57.1a4.51,4.51,0,0,0-.12-5,1.74,1.74,0,0,1-.28-1.33,3.66,3.66,0,0,0-3.57-4.32,3.55,3.55,0,0,0-.86.1,1.1,1.1,0,0,1-1-.27,4.53,4.53,0,0,0-6.4.33h0a4.48,4.48,0,0,0-1,1.81.81.81,0,0,1-.7.59,2.2,2.2,0,0,0-.37.07,2.29,2.29,0,0,0-1.63,2.79v0a2.12,2.12,0,0,0,.53,1,1.09,1.09,0,0,1,.26,1,5,5,0,0,0,.31,3.28Z" style="fill:#d8ebd2"/><path d="M223.11,57.1a6.05,6.05,0,0,0-.16-6.7,2.32,2.32,0,0,1-.38-1.71,5,5,0,0,0-4-5.82h0a7.4,7.4,0,0,0-.81-.08,5.47,5.47,0,0,0-1.21.13,1.45,1.45,0,0,1-1.29-.35,6.11,6.11,0,0,0-8.63.41h0a6.07,6.07,0,0,0-1.36,2.47,1.09,1.09,0,0,1-.95.8,2.66,2.66,0,0,0-.49.1,3.08,3.08,0,0,0-2.18,3.79h0a3.07,3.07,0,0,0,.7,1.29,1.44,1.44,0,0,1,.35,1.3,6.67,6.67,0,0,0-.08,2.67,6.36,6.36,0,0,0,.51,1.71Z" style="fill:#f4835f"/><path d="M286,58.15a3.37,3.37,0,0,0,.49-2,3.45,3.45,0,0,0-.58-1.57,1.26,1.26,0,0,1-.2-1,2.67,2.67,0,0,0-2.14-3.11,2.12,2.12,0,0,0-.44,0,3,3,0,0,0-.66.08.76.76,0,0,1-.66-.2,3.29,3.29,0,0,0-4.66.25,3.33,3.33,0,0,0-.73,1.31.59.59,0,0,1-.5.43l-.28,0a1.65,1.65,0,0,0-1.22,1.54,1.59,1.59,0,0,0,.43,1.2.78.78,0,0,1,.19.67,3.63,3.63,0,0,0-.05,1.43,3.7,3.7,0,0,0,.28.93Z" style="fill:#7fc5a3"/><path d="M276,57.1a4.36,4.36,0,0,0,.67-2.72,4.48,4.48,0,0,0-.78-2.14A1.66,1.66,0,0,1,275.6,51a4.3,4.3,0,0,0,0-1.34,3.62,3.62,0,0,0-3.51-2.92,4.19,4.19,0,0,0-.86.09,1,1,0,0,1-.93-.26,4.44,4.44,0,0,0-6.27.31h0a4.32,4.32,0,0,0-1,1.81.76.76,0,0,1-.67.58l-.36.07a2.25,2.25,0,0,0-1.66,2.08,2.2,2.2,0,0,0,.59,1.62,1,1,0,0,1,.25.94,4.88,4.88,0,0,0-.06,1.94,4.46,4.46,0,0,0,.38,1.24Z" style="fill:#f4835f"/><path d="M293.3,19.72a9.15,9.15,0,0,0,.07-1.28c-.12-4.72-4.37-8.51-9.43-8.45s-9.17,3.89-9.19,8.57v.56a10.27,10.27,0,0,1-2.31,7.2,12.64,12.64,0,0,0-2.79,9.6c.74,6.14,6,11,12.6,11.75,8.7.94,16.1-5.34,16.14-13.24a12.74,12.74,0,0,0-3.09-8.37A8.12,8.12,0,0,1,293.3,19.72Z" style="fill:#f4835f"/><path d="M288.41,34.05a.41.41,0,0,0-.57,0h0l-3.52,4V32.34l3-3.43a.35.35,0,0,0,0-.45.33.33,0,0,0-.45,0h0l-2.51,2.9V26a.43.43,0,1,0-.86,0V38.48L280,34.29a.41.41,0,0,0-.63.52l4.14,5V56.57a.43.43,0,1,0,.85,0h0V39.43l4.13-4.77a.4.4,0,0,0,0-.57h0Z" style="fill:#56505c"/><path d="M287.55,48.71s.3-1.39,1.14-1.39c.24,0,.42-.3.41-.67-.08-1.33-.14-4,.44-5a2,2,0,0,1,1.63-1c.21,0,.38-.24.4-.56.09-1.51.42-4.4,1.66-4.81a1.08,1.08,0,0,1,.79,0c1.24.41,1.57,3.3,1.66,4.81,0,.32.19.57.39.56a2,2,0,0,1,1.63,1c.59.94.53,3.62.46,5,0,.38.16.67.39.67.86,0,1.15,1.42,1.15,1.42a5.9,5.9,0,0,1,.14,2.29c-.94,7.19-11.53,7.19-12.44,0A6.2,6.2,0,0,1,287.55,48.71Z" style="fill:#f5ec48"/><path d="M295.44,48.65l-1.53,1.77V46.6l1.84-2.11a.2.2,0,0,0-.28-.28L293.91,46V42.21a.28.28,0,0,0-.33-.24.3.3,0,0,0-.24.24V46l-1.71-2a.21.21,0,0,0-.29,0,.21.21,0,0,0,0,.29h0l2,2.34v4.29l-1.61-2a.22.22,0,0,0-.3,0,.21.21,0,0,0-.05.3l.05,0,1.93,2.33V63.32a.31.31,0,0,0,.3.29.3.3,0,0,0,.28-.29V51l1.83-2.11a.2.2,0,0,0,0-.28h0a.21.21,0,0,0-.29,0h0Z" style="fill:#56505c"/><polygon points="234.09 45.51 234.09 55.41 245.84 55.41 245.84 45.51 239.28 38.15 234.09 45.51" style="fill:#f8e5c1"/><rect x="245.62" y="45.51" width="17.08" height="9.91" style="fill:#fdf3de"/><rect x="247.42" y="48.24" width="2.73" height="4.78" rx="0.27" style="fill:#56505c"/><rect x="237.43" y="45.92" width="4.06" height="7.11" rx="0.27" style="fill:#56505c"/><path d="M256.63,55.32h-4.44V51a2.22,2.22,0,0,1,2.22-2.17h0a2.21,2.21,0,0,1,2.22,2.22h0Z" style="fill:#56505c"/><rect x="257.93" y="48.24" width="2.73" height="4.78" rx="0.27" style="fill:#56505c"/><polygon points="258.69 37.65 238.54 37.65 232.31 45.51 234.17 45.51 239.2 38.7 244.35 45.51 264.84 45.51 258.69 37.65" style="fill:#f4835f"/><path d="M260.8,38.66a2.09,2.09,0,0,1,1.88-1.45.67.67,0,0,0,.66-.67c-.12-1.39-.21-4.12.75-5.08a3.91,3.91,0,0,1,2.66-1,.68.68,0,0,0,.67-.59c.15-1.52.66-4.49,2.73-4.92a3.5,3.5,0,0,1,1.29,0c2,.43,2.57,3.43,2.73,4.92a.66.66,0,0,0,.66.59,3.93,3.93,0,0,1,2.67,1c1,1,.86,3.69.75,5.08a.65.65,0,0,0,.65.67h0a2.12,2.12,0,0,1,1.86,1.45c2.46,5.53-8.37,11.07-9.71,11.73a.53.53,0,0,1-.28.07h0a.52.52,0,0,1-.27-.07C269.17,49.71,258.34,44.16,260.8,38.66Z" style="fill:#7fc5a3"/><path d="M274.46,36.74a.34.34,0,0,0-.46,0h0l-2.71,3.16V33a.29.29,0,0,0-.29-.31h0a.31.31,0,0,0-.32.31h0v9.61L268,39.43a.31.31,0,0,0-.44-.1.31.31,0,0,0-.1.43l.06.07,3.15,3.85v13A.32.32,0,0,0,271,57h0a.3.3,0,0,0,.34-.27h0V40.88l3.21-3.7a.3.3,0,0,0,0-.43h0Z" style="fill:#56505c"/><path d="M268,56.26a2.13,2.13,0,0,0,.4-1.33,2.23,2.23,0,0,0-.32-1.08.83.83,0,0,1-.11-.67A1.79,1.79,0,0,0,266.61,51l-.3-.05h-.44a.52.52,0,0,1-.46-.15,2.21,2.21,0,0,0-3.12,0h0a2.28,2.28,0,0,0-.54.86.41.41,0,0,1-.35.26h-.19a1.09,1.09,0,0,0-.86,1.29v0a1,1,0,0,0,.23.49.53.53,0,0,1,.1.48,2.49,2.49,0,0,0,.08,1.6Z" style="fill:#7fc5a3"/><path d="M201.29,28.1s.62-3,2.39-2.94c.49,0,.85-.63.85-1.4-.14-2.82-.27-8.4,1-10.36a4.14,4.14,0,0,1,3.42-2.08c.42,0,.79-.48.86-1.17C210,7,210.63,1,213.2.15a2.34,2.34,0,0,1,1.65,0c2.57.85,3.27,6.85,3.42,10,0,.67.42,1.21.86,1.17a4.18,4.18,0,0,1,3.43,2c1.22,2,1.1,7.55.94,10.37,0,.78.34,1.4.86,1.39,1.76,0,2.38,2.95,2.38,2.95a11.87,11.87,0,0,1,.29,4.78c-1.94,15-24.05,15-25.92,0A12.12,12.12,0,0,1,201.29,28.1Z" style="fill:#f5ec48"/><path d="M217.77,23.63l-3.18,3.69V22.08l3.81-4.4a.42.42,0,1,0-.6-.6h0l-3.18,3.69V14.52a.6.6,0,1,0-1.2,0V32.66l-3.43-4a.44.44,0,0,0-.68.55l4.1,4.85V58.59a.6.6,0,1,0,1.2,0v-30l3.82-4.41a.41.41,0,0,0,0-.59h0a.42.42,0,0,0-.59,0l-.05.06Z" style="fill:#56505c"/><path d="M180.42,35.32a3.1,3.1,0,0,1,2.75-2.12.92.92,0,0,0,1-.86v-.11c-.18-2-.32-6,1.09-7.44a5.76,5.76,0,0,1,3.92-1.44.93.93,0,0,0,1-.86c.21-2.25,1-6.59,4-7.2a2.81,2.81,0,0,1,1-.11,2.75,2.75,0,0,1,.94.11c3,.61,3.78,4.95,4,7.2a.93.93,0,0,0,.94.86,5.8,5.8,0,0,1,3.91,1.45c1.41,1.4,1.26,5.42,1.09,7.44a.92.92,0,0,0,.85,1h.12a3.11,3.11,0,0,1,2.74,2.13c3.61,8.1-12.25,16.21-14.19,17.14a1,1,0,0,1-.41.09h0a.91.91,0,0,1-.41-.09C192.67,51.54,176.82,43.42,180.42,35.32Z" style="fill:#4e958c"/><path d="M200.4,33.87a.46.46,0,0,0-.65,0h0l-4,4.58v-10a.47.47,0,0,0-.47-.47.48.48,0,0,0-.48.47h0V42.52l-4-4.76a.46.46,0,0,0-.66,0,.47.47,0,0,0-.06.59L194.76,44V63a.47.47,0,0,0,.42.52.47.47,0,0,0,.53-.41V39.93l4.66-5.4a.48.48,0,0,0,.07-.65Z" style="fill:#56505c"/><path d="M500,73.59h0V70A2134.28,2134.28,0,0,0,0,70l.08,3.56,1-.12A2125.1,2125.1,0,0,1,500,73.59Z" style="fill:#e7f3e5"/><path d="M500,78.39h0V72.9a2133.2,2133.2,0,0,0-500,0v5.49l1-.15A2125.78,2125.78,0,0,1,500,78.39Z" style="fill:#d8ebd2"/><path d="M500,77.59a2132.27,2132.27,0,0,0-499.89,0V89.34H500Z" style="fill:#7fc5a3"/></svg>